<svg version="1.1" id="Layer_1" xmlns="http://www.w3.org/2000/svg" xmlns:xlink="http://www.w3.org/1999/xlink" x="0px" y="0px"
	 width="100%" viewBox="0 0 2000 1500" enable-background="new 0 0 2000 1500" xml:space="preserve">
<path fill="#000000" opacity="1.000000" stroke="none" 
	d="
M1354.000000,1501.000000 
	C904.166809,1501.000000 454.833588,1500.994507 5.500422,1501.092773 
	C1.752289,1501.093628 0.906344,1500.250366 0.907082,1496.500366 
	C1.004936,999.500549 1.004923,502.500702 0.907306,5.500867 
	C0.906570,1.753907 1.748043,0.906578 5.499162,0.907124 
	C669.165588,1.003712 1332.832031,1.003690 1996.498535,0.907543 
	C2000.244019,0.907001 2001.093872,1.745905 2001.093140,5.498570 
	C2000.995117,502.498383 2000.994995,999.498230 2001.092529,1496.498047 
	C2001.093262,1500.242310 2000.256104,1501.095703 1996.501953,1501.093872 
	C1782.501343,1500.988403 1568.500610,1501.000000 1354.000000,1501.000000 
z"/>
<path fill="#FEFEFE" opacity="1.000000" stroke="none" 
	d="
M1061.032837,354.950684 
	C1004.695984,357.004913 950.906616,367.714172 900.961243,393.770111 
	C837.955933,426.639160 793.041382,476.675323 763.164307,540.673035 
	C746.218323,576.972046 736.722900,615.488037 730.064880,654.774780 
	C722.605835,698.788452 719.953491,743.151062 722.103333,787.719849 
	C725.101318,849.871765 734.392944,910.908691 758.085876,968.915649 
	C777.563354,1016.602234 806.257874,1057.718994 847.600586,1089.238281 
	C884.210693,1117.149414 925.522888,1134.694214 970.425232,1143.965698 
	C1026.178345,1155.477661 1082.469116,1156.728271 1139.029907,1152.216431 
	C1188.986694,1148.231201 1237.790894,1138.333374 1285.782959,1124.069336 
	C1290.219971,1122.750610 1291.648804,1121.020874 1291.640381,1116.275635 
	C1291.471924,1020.946350 1291.473145,925.616699 1291.633423,830.287354 
	C1291.641602,825.394714 1290.362671,824.314880 1285.593994,824.328125 
	C1223.763550,824.500244 1161.932617,824.473938 1100.101685,824.425903 
	C1076.755127,824.407776 1060.473999,813.575806 1053.653809,793.052612 
	C1048.680664,778.087585 1050.912354,763.747620 1059.690796,750.661682 
	C1067.649536,738.797668 1080.045288,735.856689 1093.222656,735.098389 
	C1099.369995,734.744751 1105.551636,734.966980 1111.717773,734.966614 
	C1194.047852,734.961548 1276.378052,734.971008 1358.708130,734.949097 
	C1365.555420,734.947266 1372.347534,735.244385 1379.065308,736.747681 
	C1399.236816,741.261536 1411.306885,755.088440 1412.957031,775.827576 
	C1413.313599,780.308411 1413.513672,784.814392 1413.514771,789.308838 
	C1413.544312,906.137512 1413.540405,1022.966248 1413.533936,1139.794922 
	C1413.533447,1148.301270 1413.214355,1156.790405 1410.912354,1165.050781 
	C1405.920044,1182.965332 1394.179443,1194.109863 1376.411743,1199.037842 
	C1354.166260,1205.207886 1331.935425,1211.436401 1309.626709,1217.371582 
	C1260.055664,1230.559937 1209.904175,1240.897583 1158.910278,1246.738037 
	C1105.568359,1252.847534 1052.172852,1252.538086 998.771851,1247.250610 
	C948.557800,1242.278198 899.574524,1231.956055 852.414673,1213.706543 
	C766.622559,1180.507324 701.766724,1123.048828 656.054688,1043.627075 
	C627.553345,994.107849 610.178406,940.595276 599.962646,884.583923 
	C590.053162,830.252197 586.890991,775.437317 589.153442,720.354065 
	C592.834229,630.742920 614.493103,546.098877 662.064331,469.285828 
	C697.328918,412.344299 740.739929,362.737183 797.053223,325.397034 
	C837.635559,298.487701 881.893921,280.025055 928.966736,268.020844 
	C990.219666,252.400558 1052.517944,248.885681 1115.387573,251.723877 
	C1168.268311,254.111130 1220.402710,261.424988 1271.621948,274.956604 
	C1295.734619,281.326965 1319.368896,289.138092 1342.571533,298.275818 
	C1369.479858,308.872925 1379.662720,329.694672 1371.517334,357.496216 
	C1369.094971,365.764374 1365.098145,373.186371 1359.461304,379.669952 
	C1348.313232,392.492920 1333.568970,394.693604 1318.341064,391.195740 
	C1290.474487,384.794830 1262.786743,377.648590 1234.633057,372.504852 
	C1183.977783,363.250031 1133.172974,355.354370 1081.526733,354.683746 
	C1074.862305,354.597229 1068.193604,354.843140 1061.032837,354.950684 
z"/>
</svg>